# xmcd
#
# Track frame offsets: 
#        150
#        20180
#        41399
#        66249
#        104749
#        121220
#        143428
#        165047
#        200414
#        229359
#        249226
#        272884
#
# Disc length: 3833 seconds
#
# Revision: 0
# Processed by: cddbd v1.5.2PL0 Copyright (c) Steve Scherf et al.
# Submitted via: ExactAudioCopy v0.95a5
#
DISCID=a30ef70c
DTITLE=Various Artist - White Boys Blues Vol 2
DYEAR=2003
DGENRE=Blues
TTITLE0=Otis Clay - Piece Of My Heart
TTITLE1=Taj Mahal - Honky Tonk Woman
TTITLE2=Koko Taylor - Get It While You Can
TTITLE3=James Solberg - Ballad Of A Thin Man
TTITLE4=Leon Russel - Watching The River Flow
TTITLE5=Buddy Guy - Strange Brew
TTITLE6=Eric Gales - Trampled Underfoot
TTITLE7=Eric Gales With Derek Trucks - Layla
TTITLE8=Otis Clay - Since I've Been Loving You
TTITLE9=Alvin 'Youngblood' Hart - Moonlight Mile
TTITLE10=The Band - One Too Many Mornings
TTITLE11=Taj Mahal - Merdes Benz
EXTD=
EXTT0=
EXTT1=
EXTT2=
EXTT3=
EXTT4=
EXTT5=
EXTT6=
EXTT7=
EXTT8=
EXTT9=
EXTT10=
EXTT11=
PLAYORDER=
